<?xml version="1.0" encoding="UTF-8" standalone="no"?>
<svg
   xmlns:dc="http://purl.org/dc/elements/1.1/"
   xmlns:cc="http://creativecommons.org/ns#"
   xmlns:rdf="http://www.w3.org/1999/02/22-rdf-syntax-ns#"
   xmlns:svg="http://www.w3.org/2000/svg"
   xmlns="http://www.w3.org/2000/svg"
   xmlns:sodipodi="http://sodipodi.sourceforge.net/DTD/sodipodi-0.dtd"
   xmlns:inkscape="http://www.inkscape.org/namespaces/inkscape"
   version="1.1"
   width="200"
   height="200"
   style="fill:none"
   id="svg8"
   sodipodi:docname="icon.svg"
   inkscape:version="0.92.4 (5da689c313, 2019-01-14)"
   inkscape:export-filename="C:\Users\Shabana\Desktop\Programming\CodeText\icons\512.png"
   inkscape:export-xdpi="245.75999"
   inkscape:export-ydpi="245.75999">
  <metadata
     id="metadata14">
    <rdf:RDF>
      <cc:Work
         rdf:about="">
        <dc:format>image/svg+xml</dc:format>
        <dc:type
           rdf:resource="http://purl.org/dc/dcmitype/StillImage" />
        <dc:title />
      </cc:Work>
    </rdf:RDF>
  </metadata>
  <defs
     id="defs12" />
  <sodipodi:namedview
     pagecolor="#ffffff"
     bordercolor="#666666"
     borderopacity="1"
     objecttolerance="10"
     gridtolerance="10"
     guidetolerance="10"
     inkscape:pageopacity="0"
     inkscape:pageshadow="2"
     inkscape:window-width="1366"
     inkscape:window-height="705"
     id="namedview10"
     showgrid="false"
     inkscape:zoom="1.7409962"
     inkscape:cx="0.89581113"
     inkscape:cy="131.47187"
     inkscape:window-x="-8"
     inkscape:window-y="-8"
     inkscape:window-maximized="1"
     inkscape:current-layer="svg8" />
  <path
     d=""
     style="fill:none;stroke:#555555;stroke-width:10;stroke-linecap:round;stroke-linejoin:round"
     id="path2"
     inkscape:connector-curvature="0" />
  <path
     d=""
     style="fill:none;stroke:#999999;stroke-width:10;stroke-linecap:round;stroke-linejoin:round"
     id="path4"
     inkscape:connector-curvature="0" />
  <rect
     style="opacity:0.98999999;fill:#141414;fill-opacity:1;stroke:none;stroke-width:80.77846527;stroke-miterlimit:4;stroke-dasharray:none;stroke-opacity:1"
     id="rect4524"
     width="200"
     height="200"
     x="0"
     y="0"
     ry="20.462423" />
  <path
     d="m 25,10.000253 h 150 a 15,15 0 0 1 15,15.000001 V 175.00025 a 15,15 0 0 1 -15,15 H 25 a 15,15 0 0 1 -15,-15 V 25.000254 A 15,15 0 0 1 25,10.000253 m 15,30.000001 a 15,15 0 0 1 15,15 15,15 0 0 1 15,-15 15,15 0 0 1 15,15 15,15 0 0 1 15,-15 15,15 0 0 1 15,15 15,15 0 0 1 15,-15 15,15 0 0 1 15,15 m -120,15 v 0 h 105 m 15,-15 v 0 89.999996"
     style="fill:none;stroke:#ffffff;stroke-width:10;stroke-linecap:round;stroke-linejoin:round"
     id="path6"
     inkscape:connector-curvature="0" />
</svg>
